<svg xmlns="http://www.w3.org/2000/svg" viewBox="0 0 120 120" role="img" aria-label="Process SA">
  <defs>
    <linearGradient id="g1" x1="0%" y1="0%" x2="100%" y2="100%">
      <stop offset="0%" stop-color="#0f3f8c"/>
      <stop offset="100%" stop-color="#1b63d8"/>
    </linearGradient>
    <linearGradient id="g2" x1="0%" y1="0%" x2="0%" y2="100%">
      <stop offset="0%" stop-color="#43c6ac"/>
      <stop offset="100%" stop-color="#191654"/>
    </linearGradient>
  </defs>
  <rect x="6" y="6" width="108" height="108" rx="22" fill="url(#g1)" />
  <path d="M38 88c-6 0-10-4-10-10V42c0-6 4-10 10-10h28c14 0 24 10 24 23s-10 23-24 23H52v10c0 6-4 10-10 10h-4zm14-28h14c6 0 10-4 10-9s-4-9-10-9H52v18z" fill="#fff"/>
  <circle cx="82" cy="86" r="10" fill="url(#g2)" opacity="0.85"/>
</svg>
